<svg id="visual" viewBox="0 0 960 540" width="960" height="540" xmlns="http://www.w3.org/2000/svg" xmlns:xlink="http://www.w3.org/1999/xlink" version="1.1"><rect x="0" y="0" width="960" height="540" fill="#fbfbfb"></rect><defs><linearGradient id="grad1_0" x1="43.8%" y1="0%" x2="100%" y2="100%"><stop offset="14.444444444444446%" stop-color="#fbfbfb" stop-opacity="1"></stop><stop offset="85.55555555555554%" stop-color="#fbfbfb" stop-opacity="1"></stop></linearGradient></defs><defs><linearGradient id="grad2_0" x1="0%" y1="0%" x2="56.3%" y2="100%"><stop offset="14.444444444444446%" stop-color="#fbfbfb" stop-opacity="1"></stop><stop offset="85.55555555555554%" stop-color="#fbfbfb" stop-opacity="1"></stop></linearGradient></defs><g transform="translate(960, 0)"><path d="M0 351C-74.8 349.6 -149.7 348.2 -175.5 304C-201.3 259.8 -178.1 172.8 -199.2 115C-220.3 57.2 -285.6 28.6 -351 0L0 0Z" fill="#010101"></path></g><g transform="translate(0, 540)"><path d="M0 -351C73.6 -348.9 147.1 -346.7 175.5 -304C203.9 -261.2 187 -177.9 208.7 -120.5C230.4 -63.1 290.7 -31.5 351 0L0 0Z" fill="#010101"></path></g></svg>
